<svg xmlns="http://www.w3.org/2000/svg" width="48" height="36.281" viewBox="0 0 48 36.281"><defs><style>.a,.c{fill:#f12578;}.a{fill-rule:evenodd;}.b{fill:none;}</style></defs><g transform="translate(142)"><path class="a" d="M118.727,29.846l-2.433,12.32,24.974-2.6V55.979l-24.974-2.6,2.433,11.557L94.343,47.774Z" transform="translate(-236.343 -28.807)"/><path class="a" d="M118.727,29.846l-2.433,12.32,24.974-2.6V55.979l-24.974-2.6,2.433,11.557L94.343,47.774Z" transform="translate(-235.304 -29.846)"/><line class="b" x1="7.482" y2="2.286" transform="translate(-109.483 15.083)"/><line class="b" x1="10.807" y2="2.806" transform="translate(-105.742 10.511)"/><line class="b" x1="36.784" y2="11.846" transform="translate(-131.719 11.238)"/><line class="b" y1="9.144" x2="27.848" transform="translate(-132.551 13.005)"/><line class="b" x1="34.706" y2="11.326" transform="translate(-135.564 11.03)"/><line class="b" y1="9.352" x2="29.199" transform="translate(-135.252 11.862)"/><line class="b" x1="28.471" y2="8.832" transform="translate(-137.746 11.758)"/><line class="b" x1="22.756" y2="6.754" transform="translate(-137.642 12.381)"/><line class="b" x1="19.639" y2="5.923" transform="translate(-139.097 12.277)"/><line class="b" y1="5.923" x2="18.6" transform="translate(-138.681 11.654)"/><line class="b" y1="5.403" x2="17.353" transform="translate(-137.227 10.199)"/><line class="b" y2="1.351" transform="translate(-119.666 9.887)"/><line class="b" y1="5.299" x2="14.859" transform="translate(-134.005 8.433)"/><line class="b" x1="13.612" y2="9.975" transform="translate(-131.408 1.886)"/><line class="b" y1="8.417" x2="11.742" transform="translate(-129.849 3.237)"/><line class="b" x1="7.585" y2="5.923" transform="translate(-125.797 3.861)"/><line class="b" y1="4.156" x2="6.027" transform="translate(-124.861 5.419)"/><line class="b" y1="1.974" x2="2.39" transform="translate(-121.121 6.562)"/><line class="b" x2="0.416" y2="0.52" transform="translate(-122.575 8.329)"/><line class="b" y1="11.222" x2="35.433" transform="translate(-130.576 12.797)"/><line class="b" y1="10.807" x2="34.706" transform="translate(-129.849 14.148)"/><line class="b" y1="10.599" x2="33.875" transform="translate(-129.018 15.291)"/><line class="b" x2="1.974" y2="9.04" transform="translate(-120.081 23.604)"/><line class="b" x1="9.664" y1="6.962" transform="translate(-127.771 25.682)"/><line class="b" y1="2.39" x2="6.65" transform="translate(-127.667 24.643)"/><line class="b" x2="1.663" y2="7.274" transform="translate(-121.328 23.915)"/><line class="b" x1="3.845" y1="2.702" transform="translate(-124.55 26.409)"/><line class="b" x2="3.429" y2="0.623" transform="translate(-124.342 26.409)"/><line class="b" y1="0.623" x2="2.182" transform="translate(-123.51 25.682)"/><line class="b" x1="0.208" y2="8.936" transform="translate(-98.156 15.499)"/><line class="b" y1="9.248" x2="0.312" transform="translate(-102.001 15.395)"/><line class="b" y1="7.066" x2="0.312" transform="translate(-101.378 17.057)"/><line class="b" y1="7.897" x2="0.416" transform="translate(-100.65 16.953)"/><line class="b" y1="8.625" transform="translate(-99.195 16.122)"/><line class="b" y1="9.56" x2="0.52" transform="translate(-97.325 15.499)"/><line class="b" y2="10.079" transform="translate(-95.766 15.499)"/><line class="b" x1="0.623" y1="1.974" transform="translate(-96.702 23.708)"/><line class="b" y1="10.287" x2="0.416" transform="translate(-94.831 16.226)"/><line class="b" x1="15.067" y1="1.143" transform="translate(-116.652 22.357)"/><line class="b" x1="2.494" y1="0.208" transform="translate(-104.079 24.227)"/><line class="b" x1="4.052" y1="1.351" transform="translate(-109.794 23.396)"/><line class="b" x1="11.638" y1="1.039" transform="translate(-114.366 23.084)"/><line class="b" x2="12.573" y2="1.143" transform="translate(-114.47 21.318)"/><line class="b" x2="9.768" y2="2.494" transform="translate(-111.457 19.655)"/><line class="b" x2="0.208" transform="translate(-111.457 20.59)"/><line class="b" y1="0.312" x2="2.909" transform="translate(-109.587 20.382)"/><line class="b" x1="0.935" y2="1.247" transform="translate(-111.041 20.486)"/><line class="b" x2="8.001" transform="translate(-108.132 20.071)"/><line class="b" y1="0.623" x2="3.221" transform="translate(-104.807 20.798)"/><line class="b" x1="3.845" y2="3.221" transform="translate(-105.846 17.577)"/><line class="b" x2="1.559" y2="0.104" transform="translate(-103.456 19.032)"/><rect class="c" width="0.727" height="1.351" transform="translate(-94.727 25.786)"/><line class="b" x1="0.623" y2="0.52" transform="translate(-117.276 35.138)"/><line class="b" x2="0.52" y2="0.831" transform="translate(-117.068 35.034)"/><line class="b" x2="0.727" y2="0.727" transform="translate(-117.795 35.553)"/></g></svg>