<svg xmlns="http://www.w3.org/2000/svg" xmlns:xlink="http://www.w3.org/1999/xlink" width="159.575" height="177.295" viewBox="0 0 159.575 177.295"><defs><style>.a,.m{fill:none;}.b{clip-path:url(#a);}.c{fill:#eca04c;}.d{fill:#f9b662;}.e{fill:#89463f;}.f{fill:#ba6a1b;}.g{fill:#47484a;}.h,.u,.v{fill:#fff;}.i{fill:#650521;}.j{fill:#970b2e;}.k{fill:#002b39;}.l{fill:#0b4954;}.m{stroke:#e31368;stroke-miterlimit:10;}.n{fill:#e73358;}.o{fill:#fbb662;}.p{fill:#e0e1e1;}.q{fill:#e2af0c;}.r{fill:#001f2e;}.s{fill:#040505;}.t{fill:#1a1718;}.t,.u,.v{mix-blend-mode:soft-light;isolation:isolate;}.v{opacity:0.5;}</style><clipPath id="a"><rect class="a" width="159.575" height="177.295"/></clipPath></defs><g class="b" transform="translate(0 0)"><g transform="translate(-20.102 20.827)"><path class="c" d="M2010.746,6455.938s.419,15.6.212,18.51,3.106,2.481,3.319,2.213,5.02-3.284,5.092-3.408,1.136-3.325,1.136-3.325-3.5-5.6-3.5-5.807-5.143-8.557-5.143-8.557Z" transform="translate(-1942.854 -6372.618)"/><g transform="translate(64.354 59.32)"><path class="d" d="M2034.261,6451.245a23.674,23.674,0,0,1,1.814,6.955,16.793,16.793,0,0,0-.85,3.6c-.106,1.521.523,2.711.243,5.151s-6.811,13.186-6.811,13.186-6.411-.5-8.748-1.479c0,0-5.515-4.752-7.479-14.284,0,0-1.892-.295-2.188-.752s-1.067-5.1-.775-6.17,1.109-4.185,1.955-5.382,2.126-4.661,4.165-5.723a16.445,16.445,0,0,1,4.408-1.332c.838-.271,1.315-1.656,4.754-.82a29.749,29.749,0,0,1,6.567,2.2C2032.159,6446.894,2033.43,6449.015,2034.261,6451.245Z" transform="translate(-2008.165 -6440.236)"/><path class="e" d="M2015.308,6462.582a14.329,14.329,0,0,0,1.986-4.233s-1.641-.759-.822-3.9,2.978-5.944,4.469-6.17,9.461,1.974,13.924,4.709l.654,1.752a6.573,6.573,0,0,0,4.832-6.7,4.153,4.153,0,0,1-1.927,2.6s3.3-5.126-.917-8.86c0,0,.382,2.869-1.5,4.16,0,0-.482-2.384-1.64-3.01a4.76,4.76,0,0,1-1.306,1.493s-11.232-5.823-18.983.4-5.441,19.437-3.493,25.254,1.891,8.978,1.891,8.978l-.257-13.274s-3.267-2.919-1.628-6.084,4.494-.218,4.484,3.1" transform="translate(-2008.681 -6441.773)"/><path class="f" d="M2010.537,6452.815a2.477,2.477,0,0,1,1.42,2.556l-.837.6A2.769,2.769,0,0,0,2010.537,6452.815Z" transform="translate(-2007.357 -6433.898)"/><path class="e" d="M2023.779,6451.824l-.792.5s-1.992-2.884-6.64-2.018l-.385-1.87A6.946,6.946,0,0,1,2023.779,6451.824Z" transform="translate(-2003.486 -6437.173)"/><path class="e" d="M2022.252,6451.023l.139.951a2.6,2.6,0,0,1,2.3-.312c1.083.3,1.348,2.12,1.348,2.12a6.007,6.007,0,0,0,.857-.455,2.861,2.861,0,0,0-4.639-2.3Z" transform="translate(-1999.001 -6435.613)"/><path class="g" d="M2021.627,6454.193l-.6.389a3.289,3.289,0,0,0-4.415-.735l-.425-1.544S2019.51,6450.114,2021.627,6454.193Z" transform="translate(-2003.328 -6434.682)"/><path class="g" d="M2022.2,6454.532l.184.606a1.221,1.221,0,0,1,1.268-.47,1.981,1.981,0,0,1,1.121,1.167l.865-.37a2.287,2.287,0,0,0-1.754-1.862A1.6,1.6,0,0,0,2022.2,6454.532Z" transform="translate(-1999.038 -6433.352)"/><path class="f" d="M2021.766,6454.065a6.586,6.586,0,0,0,2.531,3.1,1.129,1.129,0,0,1,.142,1.26c-.362.731-2.4,1.779-2.86,2.2,0,0,1.5-.677,2.193-.914s2.473-1.08,1.506-2.805A6.944,6.944,0,0,1,2021.766,6454.065Z" transform="translate(-1999.479 -6433.007)"/><path class="h" d="M2016.624,6456.792a7.1,7.1,0,0,0-.809,2.441,19.7,19.7,0,0,0,9.526,2.378,6.343,6.343,0,0,1,.542-1.256S2017.068,6459.063,2016.624,6456.792Z" transform="translate(-2003.591 -6431.061)"/><g transform="translate(12.162 28.17)"><path class="i" d="M2023.13,6459.782a20.835,20.835,0,0,1-4.215-.428c1.095,1,2.532,2.578,2.745,4.079.164.014.324.028.495.038C2022.155,6463.472,2022.608,6461.327,2023.13,6459.782Z" transform="translate(-2013.542 -6457.401)"/><path class="j" d="M2021.153,6460.169a18.108,18.108,0,0,1-5.312-1.952,5.56,5.56,0,0,0,1.326,4.559,21.13,21.13,0,0,0,6.73,1.471C2023.685,6462.747,2022.248,6461.171,2021.153,6460.169Z" transform="translate(-2015.779 -6458.217)"/></g></g><path class="k" d="M2098.8,6427.951a3.3,3.3,0,0,0-2.9,1.287c-1.167,1.526-9.516,20.676-14.454,28.008-3.75,5.569-18.656,22.71-21,25.316l-32.863,18.133a35.636,35.636,0,0,0-5.925,6.911c-2.424,3.861-10.862,14.273-17.954,21.276s-25.585,14.9-32.588,17.235v2.783h31.958s13.287-8.887,18.045-15.26c0,0-2.155,9.6-6.824,15.26h50.183s-1.257-29.174,7.449-51.437c0,0,25.706-39.289,33.246-46.111a23.383,23.383,0,0,1,3.531-2.514c1.675-.9,6.344-3.531,5.029-11.791S2104.129,6427.2,2098.8,6427.951Z" transform="translate(-1971.119 -6392.433)"/><path class="l" d="M2034.933,6460.3l-22.854,31.541a24.013,24.013,0,0,1-7.544-14.768Z" transform="translate(-1947.283 -6369.241)"/><path class="h" d="M2006.18,6473.636s-.031,8.424,4.725,14.463l14.673-25.168Z" transform="translate(-1946.109 -6367.362)"/><path class="m" d="M2011.842,6469.125" transform="translate(-1942.072 -6362.945)"/><path class="n" d="M2008.7,6469.767l.645,3.29,5.132-2.74,2.783-5.3Z" transform="translate(-1944.317 -6365.871)"/><path class="m" d="M2010.731,6470.629" transform="translate(-1942.865 -6361.873)"/><path class="n" d="M2010.06,6470.85l-2.376,10.084a25.912,25.912,0,0,0,2.023,3.346c.044.051.125.123.125.123l5.756-9.876-.4-6.414Z" transform="translate(-1945.036 -6363.666)"/><path class="o" d="M2049.852,6448.835l8.2-14.783s6.4.838,7.84-4.309-10.353-12.268-10.353-12.268-5.685-1.2-8.019,5.146c0,0,.914,3.86,2.289,5.6l-4.566,8.705S2045.991,6445.108,2049.852,6448.835Z" transform="translate(-1918.248 -6399.851)"/><path class="p" d="M2063.613,6421.18l-24.447-14.028s-5.207,2.153-5.118,10.054l29.046,14.723,28.767,21.9s6.643,0,7.54-8.527Z" transform="translate(-1926.233 -6407.151)"/><g transform="translate(42.632 19.017)"><path class="q" d="M2030.5,6426.635a5.117,5.117,0,0,0,3.094,1.393c2,.2,2.9,3.674,2.9,3.674s-.833.81-1.338.444c0,0-.379-1.812-1.376-2.388-1.643-.943-2.654.094-4.368-2.646l1.083-.477" transform="translate(-1972.166 -6412.271)"/><path class="q" d="M2034.044,6429.3s-.129.474-1.283.563a1.9,1.9,0,0,0,.086,1.58c.326.878.88.986.88.986a1.848,1.848,0,0,0,1.635-.744A2.581,2.581,0,0,0,2034.044,6429.3Z" transform="translate(-1969.866 -6410.366)"/><path class="q" d="M2033.8,6434.052a5.452,5.452,0,0,1-.223,1.1,4.215,4.215,0,0,0,1.775.145,5.458,5.458,0,0,0-.28-2.736,11.673,11.673,0,0,1,.725,2.646c.118-.032.236-.07.356-.115a3.263,3.263,0,0,0,.384-.173,11.76,11.76,0,0,0-.834-1.819,14.244,14.244,0,0,1,1.066,1.687,2.282,2.282,0,0,0,.772-.8,1.817,1.817,0,0,0-.469-.783,1.34,1.34,0,0,1,.624.428,2.137,2.137,0,0,0,.088-1.02,5.172,5.172,0,0,1-2.246-1.708c-1.021-1.316-1.667.389-1.667.389s-.38,2.425-1.48,3.323a4.138,4.138,0,0,0,.8.405A2.508,2.508,0,0,0,2033.8,6434.052Z" transform="translate(-1970.045 -6409.58)"/><path class="r" d="M2030.487,6449.9,1996,6441.731l21.4-23.481,43.265,10.621Z" transform="translate(-1996.002 -6418.25)"/><g transform="translate(16.348 11.424)"><path class="l" d="M2006.343,6442.012l-.8-8.471s1.719-5.577,10.155-7.85,15.711,1.01,17.529,2.921l1.554,10.6Z" transform="translate(-2005.543 -6424.919)"/><path class="r" d="M2021.652,6443.241c3.719-.553,13.2-2.762,12.812-7.877s-13.333-7.352-19.421-1.856a13.231,13.231,0,0,0-5.111-.174c-2.22.458-4.739,2.292-3.7,5.768C2007.579,6443.634,2015.7,6444.125,2021.652,6443.241Z" transform="translate(-2005.226 -6421.072)"/></g></g><path class="o" d="M2049.765,6420.414s1.078-4,2.918-5.925c0,0,3.591-1.078,5.609,1.884a27.808,27.808,0,0,1-3.949,6.462C2052.235,6425.08,2049.765,6420.414,2049.765,6420.414Z" transform="translate(-1915.019 -6402.055)"/><path class="o" d="M2057.021,6415.35s2.988-.352,4.693,3.194c0,0-1.438,5.881-6.015,8.034a5.311,5.311,0,0,1-3.143-1.3c-1.706-1.347-1.227-2.153-1.227-2.153a12.579,12.579,0,0,1,.867-2.605c.315-.312,2.784-2.513,2.918-2.691S2057.021,6415.35,2057.021,6415.35Z" transform="translate(-1913.95 -6401.308)"/><path class="o" d="M2059.9,6417.337a5,5,0,0,1,3.725,3.33,9.685,9.685,0,0,1-6.912,7.183,4.2,4.2,0,0,1-3.187-3.1,6.733,6.733,0,0,1,1.123-5.214C2054.824,6419.411,2059.9,6417.337,2059.9,6417.337Z" transform="translate(-1912.447 -6399.887)"/><path class="o" d="M2061.981,6419.638a3.616,3.616,0,0,1,2.335,2.814,9.14,9.14,0,0,1-6.374,6.075,4.856,4.856,0,0,1-2.753-2.783,2.066,2.066,0,0,1,1.167-2.754c.208-.089,3.146-1.735,3.322-1.854S2061.981,6419.638,2061.981,6419.638Z" transform="translate(-1911.257 -6398.245)"/><path class="o" d="M2048.147,6418.794a6.3,6.3,0,0,1,5.107-1.317c2.783.677,4.669,5.479,4.669,5.479a5.3,5.3,0,0,1-4.624,2.736,10.035,10.035,0,0,1-3.528-5.521Z" transform="translate(-1916.175 -6399.885)"/><path class="o" d="M2053.866,6424a25.872,25.872,0,0,1-5.327-1.468,12.169,12.169,0,0,1-1.753-1.16,8.306,8.306,0,0,1,2.74-3.236c1.887-1.259,3.5,2.513,3.591,2.573S2053.866,6424,2053.866,6424Z" transform="translate(-1917.145 -6399.496)"/><path class="s" d="M2045.308,6428.371s2.584,14.135,8.918,14.422c5.925.269,3.051-8.317,3.051-8.317s3.487,8.706-1.5,10.113C2049.09,6446.479,2044.59,6433.876,2045.308,6428.371Z" transform="translate(-1918.253 -6392.014)"/><path class="t" d="M2021.99,6429.04l1.143,7.785,17.421-12.122S2030.027,6430.7,2021.99,6429.04Z" transform="translate(-1934.833 -6394.631)"/><path class="t" d="M2010.53,6430.244l.771,6.476-13.206-3.051S2005.148,6433.861,2010.53,6430.244Z" transform="translate(-1951.877 -6390.68)"/><path class="u" d="M2022.891,6428.049c.048.051,1.066,7.627,1.066,7.627a7.994,7.994,0,0,0-3.735-2.214l-.618-7.295A9.029,9.029,0,0,1,2022.891,6428.049Z" transform="translate(-1936.536 -6393.585)"/><path class="u" d="M2020.2,6433.562l-.631-7.385-.908-.392.639,7.654Z" transform="translate(-1937.205 -6393.86)"/><path class="t" d="M2006.249,6437.913l-.594-6.366a10.6,10.6,0,0,1,2.707-3.751l1.045,7.345A4.859,4.859,0,0,0,2006.249,6437.913Z" transform="translate(-1946.485 -6392.424)"/><path class="t" d="M2017.369,6443.09s-4.739-.225-4.646-3.141c.153-4.786,16.465-10.607,21.336-4.2,0,0-.027-3.944-6.889-5.013-4.338-.676-10,.751-12.168,3.178,0,0-5.722-1.65-7.771.984C2004.065,6438.964,2008.381,6443.674,2017.369,6443.09Z" transform="translate(-1946.098 -6390.446)"/><path class="t" d="M2052.5,6431.113l-4.129,7.392s2.6,2.766,4.668,1.856S2055.46,6433.387,2052.5,6431.113Z" transform="translate(-1916.016 -6390.059)"/><path class="t" d="M2008.88,6468.46l.538,2.87,2.514-1.435s-1.556-.569-.238-2.963Z" transform="translate(-1944.184 -6364.505)"/><path class="t" d="M2012.786,6469.124l-2.633,1.274-2.3,9.576,1.886,2.993s1.525-2.6,1.945-3.263C2011.679,6479.7,2009.7,6475.509,2012.786,6469.124Z" transform="translate(-1944.92 -6362.944)"/><path class="t" d="M2014.285,6494.327s2.513-9.337,2.634-13.526c0,0-12.927,23.7-35.67,29.685h13.885S2008.419,6502.228,2014.285,6494.327Z" transform="translate(-1963.893 -6354.615)"/><path class="t" d="M2072.642,6440.241s-6.591,1.705-10.091-1.706c0,0,.987,3.231,2.425,3.949s-10.145,15.473-13.287,19.451-13.736,20.946-21.185,27.455-8.226,7.966-8.226,7.966,4.006-.739,4.455,2.4-2.514,31.749-1.8,40.876h2.244a140.476,140.476,0,0,1,4.578-44.2,33.093,33.093,0,0,1,2.513-6.854l19.3-28.067C2059.589,6453.436,2067.653,6441.5,2072.642,6440.241Z" transform="translate(-1934.628 -6384.763)"/><path class="t" d="M2056.164,6422.317a6.183,6.183,0,0,1-3.848,1.7,7.707,7.707,0,0,1-2.853-5.1S2052.6,6423.44,2056.164,6422.317Z" transform="translate(-1915.237 -6398.752)"/><path class="t" d="M2051.469,6415.521s-.919,1.862-1.324,2.826a6.369,6.369,0,0,1,2.423.284,6.5,6.5,0,0,1,2.335,1.67,24.627,24.627,0,0,0,1.727-2.58A4.8,4.8,0,0,1,2051.469,6415.521Z" transform="translate(-1914.749 -6401.18)"/><path class="t" d="M2051.674,6422.424l8.035,6a7.327,7.327,0,0,1-4.017,1.408S2056.17,6426.388,2051.674,6422.424Z" transform="translate(-1913.659 -6396.256)"/><path class="t" d="M2057.784,6427.255l-4.219-3.3s2.74,2.865,2.53,4.174A3.467,3.467,0,0,0,2057.784,6427.255Z" transform="translate(-1912.311 -6395.163)"/><path class="t" d="M2053.929,6417.984a4.434,4.434,0,0,1-.875,1.345,29.647,29.647,0,0,1,1.653,2.939c.21.629-1.351,1.8-1.542,1.954,0,0,.976.206,1.258.269a10.656,10.656,0,0,0,3.725-3.438A4.055,4.055,0,0,1,2053.929,6417.984Z" transform="translate(-1912.675 -6399.424)"/><path class="t" d="M2057.168,6420.711a11.077,11.077,0,0,1-3.038,2.156h-.478a4.263,4.263,0,0,0,2.813,2.349,6.611,6.611,0,0,0,2.2-.913S2056.39,6423.87,2057.168,6420.711Z" transform="translate(-1912.248 -6397.478)"/><path class="t" d="M2058.915,6422.477a9.487,9.487,0,0,1-3.516,1.781,3.722,3.722,0,0,0,2.318,2.02,10.9,10.9,0,0,0,2.32-1A2.492,2.492,0,0,1,2058.915,6422.477Z" transform="translate(-1911.002 -6396.22)"/><path class="t" d="M2048.385,6441.176l7.72-13.733-1.2-.959.179.839-7.541,12.508Z" transform="translate(-1916.602 -6393.359)"/><path class="t" d="M2046.787,6420.477s.886,3.829,2.2,5.327l.358-.42A45.687,45.687,0,0,1,2046.787,6420.477Z" transform="translate(-1917.145 -6397.644)"/><path class="v" d="M2056.76,6422.739s-1.392-4.023-4.429-5.146a6.065,6.065,0,0,0-2.868.225,9.793,9.793,0,0,1,3.017.657c2.245,1.227,3.831,4.624,3.831,4.624" transform="translate(-1915.237 -6399.759)"/><path class="u" d="M2049.229,6428.166a2.3,2.3,0,0,0-1.128,1.881c-.192,1.466.432,9.122,3.155,12.128,0,0-4.277-3.316-4.21-11.072l-7.417,14.834,7.487-16.352A2.158,2.158,0,0,1,2049.229,6428.166Z" transform="translate(-1922.25 -6392.164)"/><path class="t" d="M2052.254,6422.551l26.766,20.335a8.158,8.158,0,0,0,5.22-2.662s-8.81-3.621-21.961-13.451a13.123,13.123,0,0,1-2.619.6,4.986,4.986,0,0,1-2.506-2.5,4.277,4.277,0,0,1-2.983-2.671l-.817-.419S2052.681,6422.558,2052.254,6422.551Z" transform="translate(-1913.244 -6396.714)"/><path class="t" d="M2058.169,6423.761a6.842,6.842,0,0,0-2.3,2.163l-21.367-10.808a8.233,8.233,0,0,1,1.168-5.476S2053.545,6421.233,2058.169,6423.761Z" transform="translate(-1925.968 -6405.375)"/><path class="t" d="M2030.357,6427.095l-.581.358a3.342,3.342,0,0,0,1.782,1.183c1.04.194,2.667.174,3.329,2.633a1.109,1.109,0,0,0,.593-.26s-.661-2.072-1.8-2.48S2030.905,6428.112,2030.357,6427.095Z" transform="translate(-1929.279 -6392.924)"/><path class="t" d="M2032.81,6429.8a2.315,2.315,0,0,0,.762,2.315,1.543,1.543,0,0,0,.837-.126,3.078,3.078,0,0,1-.827-2.357A3.32,3.32,0,0,1,2032.81,6429.8Z" transform="translate(-1927.163 -6391.115)"/><path class="t" d="M2034.729,6431.1a1.557,1.557,0,0,1-.9.189,5.2,5.2,0,0,1-1.35,2.811,3.544,3.544,0,0,0,.611.333,3.263,3.263,0,0,0,.694-1.263,3.029,3.029,0,0,1-.088,1.362,2.323,2.323,0,0,0,.857.177,7.186,7.186,0,0,0-.073-3.107,10.126,10.126,0,0,1,.457,2.705s.36-.625-.265-2.717l.281.723-.209-1.06a11.466,11.466,0,0,1,1.069,3.292,2.417,2.417,0,0,0,.5-.171A22.152,22.152,0,0,0,2034.729,6431.1Z" transform="translate(-1927.351 -6390.07)"/><path class="t" d="M2031.2,6453.545s3.531-1.211,4.13-4.142a9.041,9.041,0,0,1-4.219,1.676s4.758-1.5,3.562-7.062c0,0-1.258,3.65-3.562,4.578,0,0,.868-3.591-.6-5.535a6.609,6.609,0,0,1-4.758,4.877,18.024,18.024,0,0,1-5.113-.538c-3.177-.717-3.536-.809-4.492-.449a2.3,2.3,0,0,0-1.258.958,3.177,3.177,0,0,1,2.1-.719c1.287.03,9.156,1.866,13.614,4.72A7.981,7.981,0,0,1,2031.2,6453.545Z" transform="translate(-1939.899 -6381.538)"/><path class="t" d="M2009.086,6451.116a25.738,25.738,0,0,0,.875,10.582,74.942,74.942,0,0,1,2.113,7.831l-.358-9a6.009,6.009,0,0,1-1.926-4.462c.019-3.437,2.938-4.152,3.971-2.844a10,10,0,0,1,1.518,3s1.391-2.267,1.354-3.052a5.638,5.638,0,0,1-.814-3.748S2012.228,6451.486,2009.086,6451.116Z" transform="translate(-1944.182 -6377)"/><path class="t" d="M2011.194,6457.058s2.887,8.842,6.747,11.94l-1.973,1.033S2011.723,6463.5,2011.194,6457.058Z" transform="translate(-1942.534 -6371.552)"/><path class="t" d="M2024.5,6456.986s-2.08,1.373-2.454,1.749a1.874,1.874,0,0,1-1.286-.747l3.008-1.271Z" transform="translate(-1935.713 -6371.794)"/><path class="u" d="M2024.4,6448.7a57.394,57.394,0,0,1,1.736,6.017,12.883,12.883,0,0,0-.867,3.624,34.715,34.715,0,0,0,.178,4.005,19.124,19.124,0,0,1-1.047,4.278c-.219.61-1.376,1.467-1.376,1.467s2.183-4.729,2.018-5.775-.763-2.961-.463-4.578a16.953,16.953,0,0,1,.9-3.051l-2.154-6.614Z" transform="translate(-1934.093 -6377.961)"/></g></g></svg>