<svg xmlns="http://www.w3.org/2000/svg" xmlns:xlink="http://www.w3.org/1999/xlink" width="50" height="25" viewBox="0 0 50 25"><defs><style>.a{fill:#fff;}.b{fill:#b22234;}.c{fill:#3c3b6e;}.d{clip-path:url(#a);}.e{fill:#00247d;}.f,.i{stroke:#fff;}.f,.j{stroke-width:6px;}.g{clip-path:url(#b);}.h{fill:none;stroke-width:4px;}.h,.j{stroke:#cf142b;}.i{stroke-width:10px;}</style><clipPath id="a"><path d="M0,25H50V0Z"/></clipPath><clipPath id="b"><path d="M25,15,50,27.5V15H0V27.5H25Z" transform="translate(0 -15)"/></clipPath></defs><rect class="a" width="50" height="25"/><rect class="b" width="50" height="1.923"/><rect class="b" width="50" height="1.923" transform="translate(0 3.846)"/><rect class="b" width="50" height="1.923" transform="translate(0 7.692)"/><rect class="b" width="50" height="1.923" transform="translate(0 11.538)"/><rect class="b" width="50" height="1.923" transform="translate(0 15.385)"/><rect class="b" width="50" height="1.923" transform="translate(0 19.231)"/><rect class="b" width="50" height="1.923" transform="translate(0 23.077)"/><rect class="c" width="19" height="13.462"/><g transform="translate(0.815 0.561)"><g transform="translate(0 0)"><g transform="translate(0)"><g transform="translate(0)"><path class="a" d="M0,.77.25,0,.5.77Z" transform="translate(0.56 1.54) rotate(-144.001)"/><path class="a" d="M0,.77.25,0,.5.77Z" transform="translate(0 0.77) rotate(-71.997)"/><path class="a" d="M-6.5-19.25l.25-.77.25.77Z" transform="translate(7.064 20.02)"/><path class="a" d="M0,.77.25,0,.5.77Z" transform="translate(1.465 0.294) rotate(71.997)"/><path class="a" d="M0,.77.25,0,.5.77Z" transform="translate(1.465 1.246) rotate(144.001)"/><g transform="translate(3.15)"><path class="a" d="M0,.77.25,0,.5.77Z" transform="translate(0.56 1.54) rotate(-144.001)"/><path class="a" d="M0,.77.25,0,.5.77Z" transform="translate(0 0.77) rotate(-71.997)"/><path class="a" d="M-6.5-19.25l.25-.77.25.77Z" transform="translate(7.064 20.02)"/><path class="a" d="M0,.77.25,0,.5.77Z" transform="translate(1.465 0.294) rotate(71.997)"/><path class="a" d="M0,.77.25,0,.5.77Z" transform="translate(1.465 1.246) rotate(144.001)"/></g><g transform="translate(6.3)"><path class="a" d="M0,.77.25,0,.5.77Z" transform="translate(0.56 1.54) rotate(-144.001)"/><path class="a" d="M0,.77.25,0,.5.77Z" transform="translate(0 0.77) rotate(-71.997)"/><path class="a" d="M-6.5-19.25l.25-.77.25.77Z" transform="translate(7.064 20.02)"/><path class="a" d="M0,.77.25,0,.5.77Z" transform="translate(1.465 0.294) rotate(71.997)"/><path class="a" d="M0,.77.25,0,.5.77Z" transform="translate(1.465 1.246) rotate(144.001)"/></g><g transform="translate(9.45)"><path class="a" d="M0,.77.25,0,.5.77Z" transform="translate(0.56 1.54) rotate(-144.001)"/><path class="a" d="M0,.77.25,0,.5.77Z" transform="translate(0 0.77) rotate(-71.997)"/><path class="a" d="M-6.5-19.25l.25-.77.25.77Z" transform="translate(7.064 20.02)"/><path class="a" d="M0,.77.25,0,.5.77Z" transform="translate(1.465 0.294) rotate(71.997)"/><path class="a" d="M0,.77.25,0,.5.77Z" transform="translate(1.465 1.246) rotate(144.001)"/></g><g transform="translate(12.6)"><path class="a" d="M0,.77.25,0,.5.77Z" transform="translate(0.56 1.54) rotate(-144.001)"/><path class="a" d="M0,.77.25,0,.5.77Z" transform="translate(0 0.77) rotate(-71.997)"/><path class="a" d="M-6.5-19.25l.25-.77.25.77Z" transform="translate(7.064 20.02)"/><path class="a" d="M0,.77.25,0,.5.77Z" transform="translate(1.465 0.294) rotate(71.997)"/><path class="a" d="M0,.77.25,0,.5.77Z" transform="translate(1.465 1.246) rotate(144.001)"/></g></g><g transform="translate(15.75)"><path class="a" d="M0,.77.25,0,.5.77Z" transform="translate(0.56 1.54) rotate(-144.001)"/><path class="a" d="M0,.77.25,0,.5.77Z" transform="translate(0 0.77) rotate(-71.997)"/><path class="a" d="M-6.5-19.25l.25-.77.25.77Z" transform="translate(7.064 20.02)"/><path class="a" d="M0,.77.25,0,.5.77Z" transform="translate(1.465 0.294) rotate(71.997)"/><path class="a" d="M0,.77.25,0,.5.77Z" transform="translate(1.465 1.246) rotate(144.001)"/></g></g><g transform="translate(1.575 1.35)"><g transform="translate(0 0)"><path class="a" d="M0,.77.25,0,.5.77Z" transform="translate(0.56 1.54) rotate(-144.001)"/><path class="a" d="M0,.77.25,0,.5.77Z" transform="translate(0 0.77) rotate(-71.997)"/><path class="a" d="M-6.5-19.25l.25-.77.25.77Z" transform="translate(7.064 20.02)"/><path class="a" d="M0,.77.25,0,.5.77Z" transform="translate(1.465 0.294) rotate(71.997)"/><path class="a" d="M0,.77.25,0,.5.77Z" transform="translate(1.465 1.246) rotate(144.001)"/></g><g transform="translate(3.15 0)"><path class="a" d="M0,.77.25,0,.5.77Z" transform="translate(0.56 1.54) rotate(-144.001)"/><path class="a" d="M0,.77.25,0,.5.77Z" transform="translate(0 0.77) rotate(-71.997)"/><path class="a" d="M-6.5-19.25l.25-.77.25.77Z" transform="translate(7.064 20.02)"/><path class="a" d="M0,.77.25,0,.5.77Z" transform="translate(1.465 0.294) rotate(71.997)"/><path class="a" d="M0,.77.25,0,.5.77Z" transform="translate(1.465 1.246) rotate(144.001)"/></g><g transform="translate(6.3 0)"><path class="a" d="M0,.77.25,0,.5.77Z" transform="translate(0.56 1.54) rotate(-144.001)"/><path class="a" d="M0,.77.25,0,.5.77Z" transform="translate(0 0.77) rotate(-71.997)"/><path class="a" d="M-6.5-19.25l.25-.77.25.77Z" transform="translate(7.064 20.02)"/><path class="a" d="M0,.77.25,0,.5.77Z" transform="translate(1.465 0.294) rotate(71.997)"/><path class="a" d="M0,.77.25,0,.5.77Z" transform="translate(1.465 1.246) rotate(144.001)"/></g><g transform="translate(9.45 0)"><path class="a" d="M0,.77.25,0,.5.77Z" transform="translate(0.56 1.54) rotate(-144.001)"/><path class="a" d="M0,.77.25,0,.5.77Z" transform="translate(0 0.77) rotate(-71.997)"/><path class="a" d="M-6.5-19.25l.25-.77.25.77Z" transform="translate(7.064 20.02)"/><path class="a" d="M0,.77.25,0,.5.77Z" transform="translate(1.465 0.294) rotate(71.997)"/><path class="a" d="M0,.77.25,0,.5.77Z" transform="translate(1.465 1.246) rotate(144.001)"/></g><g transform="translate(12.6 0)"><path class="a" d="M0,.77.25,0,.5.77Z" transform="translate(0.56 1.54) rotate(-144.001)"/><path class="a" d="M0,.77.25,0,.5.77Z" transform="translate(0 0.77) rotate(-71.997)"/><path class="a" d="M-6.5-19.25l.25-.77.25.77Z" transform="translate(7.064 20.02)"/><path class="a" d="M0,.77.25,0,.5.77Z" transform="translate(1.465 0.294) rotate(71.997)"/><path class="a" d="M0,.77.25,0,.5.77Z" transform="translate(1.465 1.246) rotate(144.001)"/></g></g><g transform="translate(0 2.7)"><g transform="translate(0 0)"><path class="a" d="M0,.77.25,0,.5.77Z" transform="translate(0.56 1.54) rotate(-144.001)"/><path class="a" d="M0,.77.25,0,.5.77Z" transform="translate(0 0.77) rotate(-71.997)"/><path class="a" d="M-6.5-19.25l.25-.77.25.77Z" transform="translate(7.064 20.02)"/><path class="a" d="M0,.77.25,0,.5.77Z" transform="translate(1.465 0.294) rotate(71.997)"/><path class="a" d="M0,.77.25,0,.5.77Z" transform="translate(1.465 1.246) rotate(144.001)"/><g transform="translate(3.15)"><path class="a" d="M0,.77.25,0,.5.77Z" transform="translate(0.56 1.54) rotate(-144.001)"/><path class="a" d="M0,.77.25,0,.5.77Z" transform="translate(0 0.77) rotate(-71.997)"/><path class="a" d="M-6.5-19.25l.25-.77.25.77Z" transform="translate(7.064 20.02)"/><path class="a" d="M0,.77.25,0,.5.77Z" transform="translate(1.465 0.294) rotate(71.997)"/><path class="a" d="M0,.77.25,0,.5.77Z" transform="translate(1.465 1.246) rotate(144.001)"/></g><g transform="translate(6.3)"><path class="a" d="M0,.77.25,0,.5.77Z" transform="translate(0.56 1.54) rotate(-144.001)"/><path class="a" d="M0,.77.25,0,.5.77Z" transform="translate(0 0.77) rotate(-71.997)"/><path class="a" d="M-6.5-19.25l.25-.77.25.77Z" transform="translate(7.064 20.02)"/><path class="a" d="M0,.77.25,0,.5.77Z" transform="translate(1.465 0.294) rotate(71.997)"/><path class="a" d="M0,.77.25,0,.5.77Z" transform="translate(1.465 1.246) rotate(144.001)"/></g><g transform="translate(9.45)"><path class="a" d="M0,.77.25,0,.5.77Z" transform="translate(0.56 1.54) rotate(-144.001)"/><path class="a" d="M0,.77.25,0,.5.77Z" transform="translate(0 0.77) rotate(-71.997)"/><path class="a" d="M-6.5-19.25l.25-.77.25.77Z" transform="translate(7.064 20.02)"/><path class="a" d="M0,.77.25,0,.5.77Z" transform="translate(1.465 0.294) rotate(71.997)"/><path class="a" d="M0,.77.25,0,.5.77Z" transform="translate(1.465 1.246) rotate(144.001)"/></g><g transform="translate(12.6)"><path class="a" d="M0,.77.25,0,.5.77Z" transform="translate(0.56 1.54) rotate(-144.001)"/><path class="a" d="M0,.77.25,0,.5.77Z" transform="translate(0 0.77) rotate(-71.997)"/><path class="a" d="M-6.5-19.25l.25-.77.25.77Z" transform="translate(7.064 20.02)"/><path class="a" d="M0,.77.25,0,.5.77Z" transform="translate(1.465 0.294) rotate(71.997)"/><path class="a" d="M0,.77.25,0,.5.77Z" transform="translate(1.465 1.246) rotate(144.001)"/></g></g><g transform="translate(15.75 0)"><path class="a" d="M0,.77.25,0,.5.77Z" transform="translate(0.56 1.54) rotate(-144.001)"/><path class="a" d="M0,.77.25,0,.5.77Z" transform="translate(0 0.77) rotate(-71.997)"/><path class="a" d="M-6.5-19.25l.25-.77.25.77Z" transform="translate(7.064 20.02)"/><path class="a" d="M0,.77.25,0,.5.77Z" transform="translate(1.465 0.294) rotate(71.997)"/><path class="a" d="M0,.77.25,0,.5.77Z" transform="translate(1.465 1.246) rotate(144.001)"/></g></g><g transform="translate(1.575 4.05)"><g transform="translate(0 0)"><path class="a" d="M0,.77.25,0,.5.77Z" transform="translate(0.56 1.54) rotate(-144.001)"/><path class="a" d="M0,.77.25,0,.5.77Z" transform="translate(0 0.77) rotate(-71.997)"/><path class="a" d="M-6.5-19.25l.25-.77.25.77Z" transform="translate(7.064 20.02)"/><path class="a" d="M0,.77.25,0,.5.77Z" transform="translate(1.465 0.294) rotate(71.997)"/><path class="a" d="M0,.77.25,0,.5.77Z" transform="translate(1.465 1.246) rotate(144.001)"/></g><g transform="translate(3.15 0)"><path class="a" d="M0,.77.25,0,.5.77Z" transform="translate(0.56 1.54) rotate(-144.001)"/><path class="a" d="M0,.77.25,0,.5.77Z" transform="translate(0 0.77) rotate(-71.997)"/><path class="a" d="M-6.5-19.25l.25-.77.25.77Z" transform="translate(7.064 20.02)"/><path class="a" d="M0,.77.25,0,.5.77Z" transform="translate(1.465 0.294) rotate(71.997)"/><path class="a" d="M0,.77.25,0,.5.77Z" transform="translate(1.465 1.246) rotate(144.001)"/></g><g transform="translate(6.3 0)"><path class="a" d="M0,.77.25,0,.5.77Z" transform="translate(0.56 1.54) rotate(-144.001)"/><path class="a" d="M0,.77.25,0,.5.77Z" transform="translate(0 0.77) rotate(-71.997)"/><path class="a" d="M-6.5-19.25l.25-.77.25.77Z" transform="translate(7.064 20.02)"/><path class="a" d="M0,.77.25,0,.5.77Z" transform="translate(1.465 0.294) rotate(71.997)"/><path class="a" d="M0,.77.25,0,.5.77Z" transform="translate(1.465 1.246) rotate(144.001)"/></g><g transform="translate(9.45 0)"><path class="a" d="M0,.77.25,0,.5.77Z" transform="translate(0.56 1.54) rotate(-144.001)"/><path class="a" d="M0,.77.25,0,.5.77Z" transform="translate(0 0.77) rotate(-71.997)"/><path class="a" d="M-6.5-19.25l.25-.77.25.77Z" transform="translate(7.064 20.02)"/><path class="a" d="M0,.77.25,0,.5.77Z" transform="translate(1.465 0.294) rotate(71.997)"/><path class="a" d="M0,.77.25,0,.5.77Z" transform="translate(1.465 1.246) rotate(144.001)"/></g><g transform="translate(12.6 0)"><path class="a" d="M0,.77.25,0,.5.77Z" transform="translate(0.56 1.54) rotate(-144.001)"/><path class="a" d="M0,.77.25,0,.5.77Z" transform="translate(0 0.77) rotate(-71.997)"/><path class="a" d="M-6.5-19.25l.25-.77.25.77Z" transform="translate(7.064 20.02)"/><path class="a" d="M0,.77.25,0,.5.77Z" transform="translate(1.465 0.294) rotate(71.997)"/><path class="a" d="M0,.77.25,0,.5.77Z" transform="translate(1.465 1.246) rotate(144.001)"/></g></g></g><g transform="translate(0 5.4)"><g transform="translate(0 0)"><g transform="translate(0)"><path class="a" d="M0,.77.25,0,.5.77Z" transform="translate(0.56 1.54) rotate(-144.001)"/><path class="a" d="M0,.77.25,0,.5.77Z" transform="translate(0 0.77) rotate(-71.997)"/><path class="a" d="M-6.5-19.25l.25-.77.25.77Z" transform="translate(7.064 20.02)"/><path class="a" d="M0,.77.25,0,.5.77Z" transform="translate(1.465 0.294) rotate(71.997)"/><path class="a" d="M0,.77.25,0,.5.77Z" transform="translate(1.465 1.246) rotate(144.001)"/><g transform="translate(3.15)"><path class="a" d="M0,.77.25,0,.5.77Z" transform="translate(0.56 1.54) rotate(-144.001)"/><path class="a" d="M0,.77.25,0,.5.77Z" transform="translate(0 0.77) rotate(-71.997)"/><path class="a" d="M-6.5-19.25l.25-.77.25.77Z" transform="translate(7.064 20.02)"/><path class="a" d="M0,.77.25,0,.5.77Z" transform="translate(1.465 0.294) rotate(71.997)"/><path class="a" d="M0,.77.25,0,.5.77Z" transform="translate(1.465 1.246) rotate(144.001)"/></g><g transform="translate(6.3)"><path class="a" d="M0,.77.25,0,.5.77Z" transform="translate(0.56 1.54) rotate(-144.001)"/><path class="a" d="M0,.77.25,0,.5.77Z" transform="translate(0 0.77) rotate(-71.997)"/><path class="a" d="M-6.5-19.25l.25-.77.25.77Z" transform="translate(7.064 20.02)"/><path class="a" d="M0,.77.25,0,.5.77Z" transform="translate(1.465 0.294) rotate(71.997)"/><path class="a" d="M0,.77.25,0,.5.77Z" transform="translate(1.465 1.246) rotate(144.001)"/></g><g transform="translate(9.45)"><path class="a" d="M0,.77.25,0,.5.77Z" transform="translate(0.56 1.54) rotate(-144.001)"/><path class="a" d="M0,.77.25,0,.5.77Z" transform="translate(0 0.77) rotate(-71.997)"/><path class="a" d="M-6.5-19.25l.25-.77.25.77Z" transform="translate(7.064 20.02)"/><path class="a" d="M0,.77.25,0,.5.77Z" transform="translate(1.465 0.294) rotate(71.997)"/><path class="a" d="M0,.77.25,0,.5.77Z" transform="translate(1.465 1.246) rotate(144.001)"/></g><g transform="translate(12.6)"><path class="a" d="M0,.77.25,0,.5.77Z" transform="translate(0.56 1.54) rotate(-144.001)"/><path class="a" d="M0,.77.25,0,.5.77Z" transform="translate(0 0.77) rotate(-71.997)"/><path class="a" d="M-6.5-19.25l.25-.77.25.77Z" transform="translate(7.064 20.02)"/><path class="a" d="M0,.77.25,0,.5.77Z" transform="translate(1.465 0.294) rotate(71.997)"/><path class="a" d="M0,.77.25,0,.5.77Z" transform="translate(1.465 1.246) rotate(144.001)"/></g></g><g transform="translate(15.75)"><path class="a" d="M0,.77.25,0,.5.77Z" transform="translate(0.56 1.54) rotate(-144.001)"/><path class="a" d="M0,.77.25,0,.5.77Z" transform="translate(0 0.77) rotate(-71.997)"/><path class="a" d="M-6.5-19.25l.25-.77.25.77Z" transform="translate(7.064 20.02)"/><path class="a" d="M0,.77.25,0,.5.77Z" transform="translate(1.465 0.294) rotate(71.997)"/><path class="a" d="M0,.77.25,0,.5.77Z" transform="translate(1.465 1.246) rotate(144.001)"/></g></g><g transform="translate(1.575 1.35)"><g transform="translate(0 0)"><path class="a" d="M0,.77.25,0,.5.77Z" transform="translate(0.56 1.54) rotate(-144.001)"/><path class="a" d="M0,.77.25,0,.5.77Z" transform="translate(0 0.77) rotate(-71.997)"/><path class="a" d="M-6.5-19.25l.25-.77.25.77Z" transform="translate(7.064 20.02)"/><path class="a" d="M0,.77.25,0,.5.77Z" transform="translate(1.465 0.294) rotate(71.997)"/><path class="a" d="M0,.77.25,0,.5.77Z" transform="translate(1.465 1.246) rotate(144.001)"/></g><g transform="translate(3.15 0)"><path class="a" d="M0,.77.25,0,.5.77Z" transform="translate(0.56 1.54) rotate(-144.001)"/><path class="a" d="M0,.77.25,0,.5.77Z" transform="translate(0 0.77) rotate(-71.997)"/><path class="a" d="M-6.5-19.25l.25-.77.25.77Z" transform="translate(7.064 20.02)"/><path class="a" d="M0,.77.25,0,.5.77Z" transform="translate(1.465 0.294) rotate(71.997)"/><path class="a" d="M0,.77.25,0,.5.77Z" transform="translate(1.465 1.246) rotate(144.001)"/></g><g transform="translate(6.3 0)"><path class="a" d="M0,.77.25,0,.5.77Z" transform="translate(0.56 1.54) rotate(-144.001)"/><path class="a" d="M0,.77.25,0,.5.77Z" transform="translate(0 0.77) rotate(-71.997)"/><path class="a" d="M-6.5-19.25l.25-.77.25.77Z" transform="translate(7.064 20.02)"/><path class="a" d="M0,.77.25,0,.5.77Z" transform="translate(1.465 0.294) rotate(71.997)"/><path class="a" d="M0,.77.25,0,.5.77Z" transform="translate(1.465 1.246) rotate(144.001)"/></g><g transform="translate(9.45 0)"><path class="a" d="M0,.77.25,0,.5.77Z" transform="translate(0.56 1.54) rotate(-144.001)"/><path class="a" d="M0,.77.25,0,.5.77Z" transform="translate(0 0.77) rotate(-71.997)"/><path class="a" d="M-6.5-19.25l.25-.77.25.77Z" transform="translate(7.064 20.02)"/><path class="a" d="M0,.77.25,0,.5.77Z" transform="translate(1.465 0.294) rotate(71.997)"/><path class="a" d="M0,.77.25,0,.5.77Z" transform="translate(1.465 1.246) rotate(144.001)"/></g><g transform="translate(12.6 0)"><path class="a" d="M0,.77.25,0,.5.77Z" transform="translate(0.56 1.54) rotate(-144.001)"/><path class="a" d="M0,.77.25,0,.5.77Z" transform="translate(0 0.77) rotate(-71.997)"/><path class="a" d="M-6.5-19.25l.25-.77.25.77Z" transform="translate(7.064 20.02)"/><path class="a" d="M0,.77.25,0,.5.77Z" transform="translate(1.465 0.294) rotate(71.997)"/><path class="a" d="M0,.77.25,0,.5.77Z" transform="translate(1.465 1.246) rotate(144.001)"/></g></g><g transform="translate(0 2.7)"><g transform="translate(0 0)"><path class="a" d="M0,.77.25,0,.5.77Z" transform="translate(0.56 1.54) rotate(-144.001)"/><path class="a" d="M0,.77.25,0,.5.77Z" transform="translate(0 0.77) rotate(-71.997)"/><path class="a" d="M-6.5-19.25l.25-.77.25.77Z" transform="translate(7.064 20.02)"/><path class="a" d="M0,.77.25,0,.5.77Z" transform="translate(1.465 0.294) rotate(71.997)"/><path class="a" d="M0,.77.25,0,.5.77Z" transform="translate(1.465 1.246) rotate(144.001)"/><g transform="translate(3.15)"><path class="a" d="M0,.77.25,0,.5.77Z" transform="translate(0.56 1.54) rotate(-144.001)"/><path class="a" d="M0,.77.25,0,.5.77Z" transform="translate(0 0.77) rotate(-71.997)"/><path class="a" d="M-6.5-19.25l.25-.77.25.77Z" transform="translate(7.064 20.02)"/><path class="a" d="M0,.77.25,0,.5.77Z" transform="translate(1.465 0.294) rotate(71.997)"/><path class="a" d="M0,.77.25,0,.5.77Z" transform="translate(1.465 1.246) rotate(144.001)"/></g><g transform="translate(6.3)"><path class="a" d="M0,.77.25,0,.5.77Z" transform="translate(0.56 1.54) rotate(-144.001)"/><path class="a" d="M0,.77.25,0,.5.77Z" transform="translate(0 0.77) rotate(-71.997)"/><path class="a" d="M-6.5-19.25l.25-.77.25.77Z" transform="translate(7.064 20.02)"/><path class="a" d="M0,.77.25,0,.5.77Z" transform="translate(1.465 0.294) rotate(71.997)"/><path class="a" d="M0,.77.25,0,.5.77Z" transform="translate(1.465 1.246) rotate(144.001)"/></g><g transform="translate(9.45)"><path class="a" d="M0,.77.25,0,.5.77Z" transform="translate(0.56 1.54) rotate(-144.001)"/><path class="a" d="M0,.77.25,0,.5.77Z" transform="translate(0 0.77) rotate(-71.997)"/><path class="a" d="M-6.5-19.25l.25-.77.25.77Z" transform="translate(7.064 20.02)"/><path class="a" d="M0,.77.25,0,.5.77Z" transform="translate(1.465 0.294) rotate(71.997)"/><path class="a" d="M0,.77.25,0,.5.77Z" transform="translate(1.465 1.246) rotate(144.001)"/></g><g transform="translate(12.6)"><path class="a" d="M0,.77.25,0,.5.77Z" transform="translate(0.56 1.54) rotate(-144.001)"/><path class="a" d="M0,.77.25,0,.5.77Z" transform="translate(0 0.77) rotate(-71.997)"/><path class="a" d="M-6.5-19.25l.25-.77.25.77Z" transform="translate(7.064 20.02)"/><path class="a" d="M0,.77.25,0,.5.77Z" transform="translate(1.465 0.294) rotate(71.997)"/><path class="a" d="M0,.77.25,0,.5.77Z" transform="translate(1.465 1.246) rotate(144.001)"/></g></g><g transform="translate(15.75 0)"><path class="a" d="M0,.77.25,0,.5.77Z" transform="translate(0.56 1.54) rotate(-144.001)"/><path class="a" d="M0,.77.25,0,.5.77Z" transform="translate(0 0.77) rotate(-71.997)"/><path class="a" d="M-6.5-19.25l.25-.77.25.77Z" transform="translate(7.064 20.02)"/><path class="a" d="M0,.77.25,0,.5.77Z" transform="translate(1.465 0.294) rotate(71.997)"/><path class="a" d="M0,.77.25,0,.5.77Z" transform="translate(1.465 1.246) rotate(144.001)"/></g></g><g transform="translate(1.575 4.05)"><g transform="translate(0 0)"><path class="a" d="M0,.77.25,0,.5.77Z" transform="translate(0.56 1.54) rotate(-144.001)"/><path class="a" d="M0,.77.25,0,.5.77Z" transform="translate(0 0.77) rotate(-71.997)"/><path class="a" d="M-6.5-19.25l.25-.77.25.77Z" transform="translate(7.064 20.02)"/><path class="a" d="M0,.77.25,0,.5.77Z" transform="translate(1.465 0.294) rotate(71.997)"/><path class="a" d="M0,.77.25,0,.5.77Z" transform="translate(1.465 1.246) rotate(144.001)"/></g><g transform="translate(3.15 0)"><path class="a" d="M0,.77.25,0,.5.77Z" transform="translate(0.56 1.54) rotate(-144.001)"/><path class="a" d="M0,.77.25,0,.5.77Z" transform="translate(0 0.77) rotate(-71.997)"/><path class="a" d="M-6.5-19.25l.25-.77.25.77Z" transform="translate(7.064 20.02)"/><path class="a" d="M0,.77.25,0,.5.77Z" transform="translate(1.465 0.294) rotate(71.997)"/><path class="a" d="M0,.77.25,0,.5.77Z" transform="translate(1.465 1.246) rotate(144.001)"/></g><g transform="translate(6.3 0)"><path class="a" d="M0,.77.25,0,.5.77Z" transform="translate(0.56 1.54) rotate(-144.001)"/><path class="a" d="M0,.77.25,0,.5.77Z" transform="translate(0 0.77) rotate(-71.997)"/><path class="a" d="M-6.5-19.25l.25-.77.25.77Z" transform="translate(7.064 20.02)"/><path class="a" d="M0,.77.25,0,.5.77Z" transform="translate(1.465 0.294) rotate(71.997)"/><path class="a" d="M0,.77.25,0,.5.77Z" transform="translate(1.465 1.246) rotate(144.001)"/></g><g transform="translate(9.45 0)"><path class="a" d="M0,.77.25,0,.5.77Z" transform="translate(0.56 1.54) rotate(-144.001)"/><path class="a" d="M0,.77.25,0,.5.77Z" transform="translate(0 0.77) rotate(-71.997)"/><path class="a" d="M-6.5-19.25l.25-.77.25.77Z" transform="translate(7.064 20.02)"/><path class="a" d="M0,.77.25,0,.5.77Z" transform="translate(1.465 0.294) rotate(71.997)"/><path class="a" d="M0,.77.25,0,.5.77Z" transform="translate(1.465 1.246) rotate(144.001)"/></g><g transform="translate(12.6 0)"><path class="a" d="M0,.77.25,0,.5.77Z" transform="translate(0.56 1.54) rotate(-144.001)"/><path class="a" d="M0,.77.25,0,.5.77Z" transform="translate(0 0.77) rotate(-71.997)"/><path class="a" d="M-6.5-19.25l.25-.77.25.77Z" transform="translate(7.064 20.02)"/><path class="a" d="M0,.77.25,0,.5.77Z" transform="translate(1.465 0.294) rotate(71.997)"/><path class="a" d="M0,.77.25,0,.5.77Z" transform="translate(1.465 1.246) rotate(144.001)"/></g></g></g><g transform="translate(0 10.8)"><g transform="translate(0 0)"><path class="a" d="M0,.77.25,0,.5.77Z" transform="translate(0.56 1.54) rotate(-144.001)"/><path class="a" d="M0,.77.25,0,.5.77Z" transform="translate(0 0.77) rotate(-71.997)"/><path class="a" d="M-6.5-19.25l.25-.77.25.77Z" transform="translate(7.064 20.02)"/><path class="a" d="M0,.77.25,0,.5.77Z" transform="translate(1.465 0.294) rotate(71.997)"/><path class="a" d="M0,.77.25,0,.5.77Z" transform="translate(1.465 1.246) rotate(144.001)"/><g transform="translate(3.15)"><path class="a" d="M0,.77.25,0,.5.77Z" transform="translate(0.56 1.54) rotate(-144.001)"/><path class="a" d="M0,.77.25,0,.5.77Z" transform="translate(0 0.77) rotate(-71.997)"/><path class="a" d="M-6.5-19.25l.25-.77.25.77Z" transform="translate(7.064 20.02)"/><path class="a" d="M0,.77.25,0,.5.77Z" transform="translate(1.465 0.294) rotate(71.997)"/><path class="a" d="M0,.77.25,0,.5.77Z" transform="translate(1.465 1.246) rotate(144.001)"/></g><g transform="translate(6.3)"><path class="a" d="M0,.77.25,0,.5.77Z" transform="translate(0.56 1.54) rotate(-144.001)"/><path class="a" d="M0,.77.25,0,.5.77Z" transform="translate(0 0.77) rotate(-71.997)"/><path class="a" d="M-6.5-19.25l.25-.77.25.77Z" transform="translate(7.064 20.02)"/><path class="a" d="M0,.77.25,0,.5.77Z" transform="translate(1.465 0.294) rotate(71.997)"/><path class="a" d="M0,.77.25,0,.5.77Z" transform="translate(1.465 1.246) rotate(144.001)"/></g><g transform="translate(9.45)"><path class="a" d="M0,.77.25,0,.5.77Z" transform="translate(0.56 1.54) rotate(-144.001)"/><path class="a" d="M0,.77.25,0,.5.77Z" transform="translate(0 0.77) rotate(-71.997)"/><path class="a" d="M-6.5-19.25l.25-.77.25.77Z" transform="translate(7.064 20.02)"/><path class="a" d="M0,.77.25,0,.5.77Z" transform="translate(1.465 0.294) rotate(71.997)"/><path class="a" d="M0,.77.25,0,.5.77Z" transform="translate(1.465 1.246) rotate(144.001)"/></g><g transform="translate(12.6)"><path class="a" d="M0,.77.25,0,.5.77Z" transform="translate(0.56 1.54) rotate(-144.001)"/><path class="a" d="M0,.77.25,0,.5.77Z" transform="translate(0 0.77) rotate(-71.997)"/><path class="a" d="M-6.5-19.25l.25-.77.25.77Z" transform="translate(7.064 20.02)"/><path class="a" d="M0,.77.25,0,.5.77Z" transform="translate(1.465 0.294) rotate(71.997)"/><path class="a" d="M0,.77.25,0,.5.77Z" transform="translate(1.465 1.246) rotate(144.001)"/></g></g><g transform="translate(15.75 0)"><path class="a" d="M0,.77.25,0,.5.77Z" transform="translate(0.56 1.54) rotate(-144.001)"/><path class="a" d="M0,.77.25,0,.5.77Z" transform="translate(0 0.77) rotate(-71.997)"/><path class="a" d="M-6.5-19.25l.25-.77.25.77Z" transform="translate(7.064 20.02)"/><path class="a" d="M0,.77.25,0,.5.77Z" transform="translate(1.465 0.294) rotate(71.997)"/><path class="a" d="M0,.77.25,0,.5.77Z" transform="translate(1.465 1.246) rotate(144.001)"/></g></g></g><g class="d"><path class="e" d="M0,0V25H50V0Z"/><path class="f" d="M0,0,50,25M50,0,0,25"/><g class="g" transform="translate(0 12.5)"><path class="h" d="M0,27.5,25,15,50,27.5" transform="translate(0 -15)"/></g><path class="i" d="M25,0V25M0,12.5H50"/><path class="j" d="M25,0V25M0,12.5H50"/></g></svg>