<svg xmlns="http://www.w3.org/2000/svg" width="296" height="71" viewBox="0 0 296 71"><defs><style>.a,.d{fill:#eee;}.b{fill:#e30d68;}.c{fill:#008cd0;}.d{font-size:12px;font-family:OfficinaSansBoldC;}</style></defs><g transform="translate(-164.315 -222)"><path class="a" d="M187.323,1036.733a6.176,6.176,0,0,1-3-1c-.9-.477-1.507-2.113-2-3s-1-.814-1-2a10.4,10.4,0,0,1,1-4,4.728,4.728,0,0,1,2-2c.9-.485,1.8,0,3,0s3.1-.477,4,0,.507,1.115,1,2a10.382,10.382,0,0,1,1,4c0,1.188-.507,1.107-1,2s-.1,2.515-1,3A10.5,10.5,0,0,1,187.323,1036.733Zm3-6a5.454,5.454,0,0,0-1-3,2.5,2.5,0,0,0-4,0,5.43,5.43,0,0,0-1,3,2.717,2.717,0,0,0,1,2,2.5,2.5,0,0,0,4,0A2.72,2.72,0,0,0,190.323,1030.733Z" transform="translate(-17.008 -771.734)"/><path class="a" d="M213.377,1030.733c0,1.172.454,1.106,0,2s-1.137,2.508-2,3a5.945,5.945,0,0,1-3,1c-.632,0-1.291-.645-2-1v5h-3v-16h2c.909-.709,1.936,0,3,0,1.742,0,3.99-.055,5,1S213.377,1028.931,213.377,1030.733Zm-2,0a5.987,5.987,0,0,0-1-3,2.491,2.491,0,0,0-2-1,4.362,4.362,0,0,0-2,1v5a4.1,4.1,0,0,0,2,1,2.482,2.482,0,0,0,2-1C210.854,1032.109,211.377,1031.72,211.377,1030.733Z" transform="translate(-25.062 -771.734)"/><path class="a" d="M227.25,1024.733c1.125,0,2.229-.524,3,0a5.039,5.039,0,0,1,2,2,13.918,13.918,0,0,1,1,4v1h-8c.154.786.483.584,1,1a2.789,2.789,0,0,0,2,1c.617,0,1.506-.831,2-1a16.1,16.1,0,0,0,2-1l1,3a7.34,7.34,0,0,1-2,1,11,11,0,0,1-3,1c-2.127,0-2.9-.96-4-2a5.218,5.218,0,0,1-2-4c0-1.187-.455-3.106,0-4s2.153-1.514,3-2S226.095,1024.733,227.25,1024.733Zm0,2c-.617,0-.584.622-1,1a4.066,4.066,0,0,0-1,2h5a4.442,4.442,0,0,0-1-2A3.943,3.943,0,0,0,227.25,1026.733Z" transform="translate(-31.935 -771.734)"/><path class="a" d="M248.492,1026.686c-.524,0-1.538-.239-2,0a16.074,16.074,0,0,0-2,1v8h-3v-11h2l1,1a7.156,7.156,0,0,1,2-1,4.853,4.853,0,0,1,2,0c1.418,0,2.43-.8,3,0a8.1,8.1,0,0,1,1,4v7h-3v-7c0-.693-.715-.614-1-1S249,1026.686,248.492,1026.686Z" transform="translate(-39.176 -771.686)"/><path class="a" d="M278.892,1032.869h-1l-1-1c-.986.863-2.829,1-4,1-1.742,0-2.991.056-4-1s-1-2.2-1-4c0-1.172-.455-3.106,0-4s2.137-1.506,3-2,.813,0,2,0a10.22,10.22,0,0,1,2,0c.416.131.614-.23,1,0v-5l3-1Zm-6-2a11.188,11.188,0,0,0,2-1c.377-.154.584-.692,1-1v-4c-.4-.339-.63-.853-1-1a9.159,9.159,0,0,0-2,0c-.817,0-.522.376-1,1a5.972,5.972,0,0,0-1,3c0,.986.529.391,1,1S272.06,1030.869,272.892,1030.869Z" transform="translate(-48.577 -768.869)"/><path class="a" d="M294.529,1035.7c-1.2,0-2.1.477-3,0s-1.507-2.113-2-3-1-.814-1-2a10.4,10.4,0,0,1,1-4,4.729,4.729,0,0,1,2-2c.9-.485,1.8,0,3,0s2.1-.478,3,0,2.506,1.115,3,2,0,2.813,0,4,.493,1.108,0,2a10.492,10.492,0,0,1-3,3C296.628,1036.189,295.731,1035.7,294.529,1035.7Zm3-5a5.452,5.452,0,0,0-1-3,2.5,2.5,0,0,0-4,0,5.431,5.431,0,0,0-1,3c0,.971.46.383,1,1s1.153,2,2,2c.832,0,1.453-1.368,2-2S297.529,1031.674,297.529,1030.7Z" transform="translate(-56.213 -771.703)"/><path class="b" d="M315.1,1035.7c-1.2,0-2.1.477-3,0s-1.507-2.113-2-3-1-.814-1-2a10.4,10.4,0,0,1,1-4,4.729,4.729,0,0,1,2-2c.9-.485,1.8,0,3,0s2.1-.478,3,0,2.507,1.115,3,2,0,2.813,0,4,.493,1.108,0,2a10.484,10.484,0,0,1-3,3C317.2,1036.189,316.3,1035.7,315.1,1035.7Zm3-5a5.452,5.452,0,0,0-1-3,2.5,2.5,0,0,0-4,0,5.431,5.431,0,0,0-1,3c0,.971.46.383,1,1s1.153,2,2,2c.832,0,1.453-1.368,2-2S318.1,1031.674,318.1,1030.7Z" transform="translate(-63.782 -771.703)"/><path class="a" d="M336.091,1027.834a7.467,7.467,0,0,0-2,1v7h-3v-11h1l2,1a10.1,10.1,0,0,1,2-1c.724-.386.445,0,1,0l1,2C337.583,1026.834,336.839,1027.464,336.091,1027.834Z" transform="translate(-71.776 -771.834)"/><path class="a" d="M347.614,1035.689a6.673,6.673,0,0,1-2,0,5.9,5.9,0,0,1-2-1l1-2a8.724,8.724,0,0,0,3,1c.462,0,.614-.83,1-1s0,.309,0,0c0-.6.31-.6-1-1a11.982,11.982,0,0,1-3-2,2.319,2.319,0,0,1-1-2,3.907,3.907,0,0,1,1-3c.786-.61,2.66,0,4,0,.524,0,.245-.216,1,0s1.476-.354,2,0l-1,3c-.586-.262-1.545-.877-2-1s-.507,0-1,0c-.385,0-.746-.193-1,0s0,.738,0,1c0,.2-.3-.162,0,0a19.2,19.2,0,0,0,2,1c1.094.4,1.276,1.384,2,2s1,.106,1,1a3.771,3.771,0,0,1-1,3A4.253,4.253,0,0,1,347.614,1035.689Z" transform="translate(-76.298 -771.69)"/><path class="b" d="M302.637,1067.922c0,.878-.123,1-1,1h-43c-.878,0-2-.122-2-1v-21h-4v21c0,2.75,3.25,5,6,5h43a5.015,5.015,0,0,0,5-5v-21h-4Z" transform="translate(-43.322 -779.922)"/><path class="c" d="M256.637,981.095a2.381,2.381,0,0,1,2-2h43c.877,0,1,1.122,1,2v20h4v-20a5.015,5.015,0,0,0-5-5h-43c-2.75,0-6,2.25-6,5v20h4Z" transform="translate(-43.322 -754.095)"/><text class="d" transform="translate(288.315 254)"><tspan x="0" y="0">Russian Scholarship Project</tspan><tspan x="0" y="15">Association &quot;Global Universities&quot;</tspan></text></g></svg>