<svg xmlns="http://www.w3.org/2000/svg" width="19.789" height="19.789" viewBox="0 0 19.789 19.789"><defs><style>.a{fill:#087eca;fill-rule:evenodd;}</style></defs><path class="a" d="M10.511,10.511a1.237,1.237,0,0,1,1.75,0l4.762,4.762a1.237,1.237,0,1,1-1.749,1.75l-4.762-4.762a1.237,1.237,0,0,1,0-1.75Z" transform="translate(2.404 2.403)"/><path class="a" d="M8.039,14.842a6.8,6.8,0,1,0-6.8-6.8A6.8,6.8,0,0,0,8.039,14.842Zm8.039-6.8A8.039,8.039,0,1,1,8.039,0a8.039,8.039,0,0,1,8.039,8.039Z" transform="translate(0)"/></svg>