<svg xmlns="http://www.w3.org/2000/svg" width="48" height="36.281" viewBox="0 0 48 36.281"><defs><style>.a{fill:#f12578;}</style></defs><g transform="translate(-94 -29.847)"><path class="a" d="M-8018.278-2005.528l.332-1.573-1.478,1.04,2.187-10.383-23.687,2.464v-1.147l-.263.027.019.46-.019-.46-.084.009v1.075H-8042v-1.35h.036v-16.065l24.974,2.6-2.434-12.319,24.385,17.926-.191.135,1.23.9-24.385,17.165.106-.506-.653.655Zm-.838-.3-.231-.193.231.193.185-.3-.185.3.393.328-.393-.328-.336.536Z" transform="translate(8136 2071)"/></g></svg>